#N canvas 360 53 1680 899 10;
#X obj 1754 408 cnv 15 20 30 empty empty empty 20 12 0 14 -258113 -66577
0;
#X obj 16 31 cnv 15 630 300 empty empty empty 20 12 0 14 -258113 -66577
0;
#X obj 723 33 cnv 15 1050 300 empty empty empty 20 12 0 14 -260097
-66577 0;
#X obj 1154 446 cnv 15 180 80 empty empty empty 20 12 0 14 -134688
-66577 0;
#X obj 706 445 cnv 15 440 80 empty empty empty 20 12 0 14 -204320 -66577
0;
#X msg 101 74 create \, 1;
#X msg 119 98 0 \, destroy;
#X obj 100 236 gemwin;
#X obj 198 84 loadbang;
#X floatatom 198 156 5 0 0 0 - - -;
#X floatatom 243 155 5 0 0 0 - - -;
#X msg 120 210 dimen \$1 \$2;
#X msg 198 132 500;
#X obj 198 176 pack f f;
#X obj 289 116 pix_image;
#X obj 289 94 gemhead;
#N canvas 0 22 450 300 openpanel 0;
#X obj 114 62 inlet;
#X obj 121 254 outlet;
#X obj 114 125 openpanel;
#X msg 114 162 set open \$1;
#X obj 114 199 t b a;
#X connect 0 0 2 0;
#X connect 2 0 3 0;
#X connect 3 0 4 0;
#X connect 4 0 1 0;
#X connect 4 1 1 0;
#X restore 356 80 pd openpanel;
#X obj 354 61 bng 15 250 50 0 empty empty empty 17 7 0 10 -262144 -1
-1;
#X msg 356 106 open /Users/david/Desktop/export00168-1.jpg;
#X obj 289 311 pix_write;
#X msg 320 217 \$1 \$2;
#X obj 320 190 pack f f;
#X floatatom 320 169 5 0 0 0 - - -;
#X floatatom 355 169 5 0 0 0 - - -;
#X obj 714 468 bng 15 250 50 0 empty empty empty 17 7 0 10 -262144
-1 -1;
#N canvas 1132 636 194 262 choosefolder 0;
#X obj 42 17 tof/folderpanel;
#X obj 42 38 symbol2list /;
#X obj 99 109 list length;
#X obj 42 67 t l l;
#X obj 42 161 list split;
#X obj 42 187 list2symbol /;
#X obj 42 -7 inlet;
#X obj 42 214 outlet;
#X obj 99 134 - 0;
#X connect 0 0 1 0;
#X connect 1 0 3 0;
#X connect 2 0 8 0;
#X connect 3 0 4 0;
#X connect 3 1 2 0;
#X connect 4 0 5 0;
#X connect 5 0 7 0;
#X connect 6 0 0 0;
#X connect 8 0 4 1;
#X restore 176 260 pd choosefolder;
#X text 709 450 ouput folder;
#X obj 289 237 pix_draw;
#X obj 24 77 loadbang;
#X obj 289 138 pix_info;
#X obj 713 505 bng 15 250 50 0 empty empty empty 17 7 0 10 -262144
-1 -1;
#X obj 706 529 cnv 15 752 20 empty empty empty 20 12 0 14 -233017 -66577
0;
#X obj 705 554 cnv 15 180 160 empty empty empty 20 12 0 14 -44595 -66577
0;
#X text 219 -4 GEM stuff (rewrite of original file for header standardization)
;
#X obj 786 172 mrpeach/binfile;
#X symbolatom 759 98 60 0 0 0 - - -;
#X obj 1510 97 f;
#X obj 1538 96 + 1;
#X msg 1511 73 0;
#X obj 1511 50 loadbang;
#X obj 1490 77 bng 15 250 50 0 empty empty empty 17 7 0 10 -262144
-1 -1;
#X obj 1478 168 pack s f;
#X obj 1463 50 t b b;
#X msg 1479 188 write /\$1/glitch\$2.jpg;
#X obj 730 74 bng 15 250 50 0 empty empty empty 17 7 0 10 -262144 -1
-1;
#X symbolatom 1478 144 60 0 0 0 - - -;
#X obj 1478 121 symbol;
#X obj 256 459 l2s;
#X msg 327 286 file /\$1/original 100;
#X obj 301 458 l2s;
#X symbolatom 737 503 65 0 0 0 - - -;
#X obj 256 537 l2s;
#X msg 272 514 symbol;
#X obj 223 562 symbol;
#X obj 256 481 pack s s;
#X obj 223 387 t b b b;
#X obj 223 337 bng 15 250 50 0 empty empty empty 17 7 0 10 -262144
-1 -1;
#X msg 241 132 500;
#X obj 198 108 t b b;
#X obj 223 363 t b b b;
#X obj 101 46 t b b b b;
#X msg 786 146 read /\$1;
#X obj 760 73 symbol;
#X obj 760 48 delay 300;
#X obj 270 561 bang;
#X text 1245 7 glitching action;
#X text 1175 75 batch processing;
#X text 708 485 open original image file;
#X text 1163 484 batch processing;
#X obj 1166 504 tgl 15 0 empty empty empty 17 7 0 10 -262144 -1 -1
1 1;
#X text 1190 458 glitch!;
#X obj 1163 457 bng 20 250 50 0 empty empty empty 17 7 0 10 -258113
-1 -1;
#X obj 711 571 tgl 15 0 empty empty empty 17 7 0 10 -262144 -1 -1 0
1;
#X obj 711 611 tgl 15 0 empty empty empty 17 7 0 10 -262144 -1 -1 0
1;
#X obj 711 653 tgl 15 0 empty empty empty 17 7 0 10 -262144 -1 -1 0
1;
#X text 732 654 horizontal stripes;
#X text 732 612 balls/ snowflakes;
#X obj 711 632 tgl 15 0 empty empty empty 17 7 0 10 -262144 -1 -1 0
1;
#X text 732 633 particles;
#X obj 897 555 cnv 15 180 160 empty empty empty 20 12 0 14 -52409 -66577
0;
#X text 902 559 file size extravaganza;
#X obj 864 566 vsl 15 128 0 127 0 0 empty empty empty 0 -9 0 10 -262144
-1 -1 0 1;
#X text 848 698 amount;
#X obj 906 582 tgl 15 0 empty empty empty 17 7 0 10 -262144 -1 -1 0
1;
#X text 926 580 width;
#X obj 906 608 tgl 15 0 empty empty empty 17 7 0 10 -262144 -1 -1 0
1;
#X text 926 606 depth;
#X obj 907 633 tgl 15 0 empty empty empty 17 7 0 10 -262144 -1 -1 0
1;
#X text 927 631 patchwork effect!!;
#X obj 1050 567 vsl 15 128 0 127 0 0 empty empty empty 0 -9 0 10 -262144
-1 -1 0 1;
#X text 1034 699 amount;
#X obj 1088 555 cnv 15 180 160 empty empty empty 20 12 0 14 -68281
-66577 0;
#X obj 1097 586 tgl 15 0 empty empty empty 17 7 0 10 -262144 -1 -1
0 1;
#X obj 1097 612 tgl 15 0 empty empty empty 17 7 0 10 -262144 -1 -1
0 1;
#X obj 1098 637 tgl 15 0 empty empty empty 17 7 0 10 -262144 -1 -1
0 1;
#X obj 1241 566 vsl 15 128 0 127 0 0 empty empty empty 0 -9 0 10 -262144
-1 -1 0 1;
#X text 1225 698 amount;
#X text 1093 559 hardcore saturation;
#X text 710 554 quantization frenzy;
#X text 1117 584 global;
#X text 1117 610 vertical;
#X text 1118 636 horizontal;
#X symbolatom 735 468 65 0 0 0 - - -;
#X obj 1278 555 cnv 15 180 160 empty empty empty 20 12 0 14 -112697
-66577 0;
#X obj 1287 586 tgl 15 0 empty empty empty 17 7 0 10 -262144 -1 -1
0 1;
#X obj 1287 612 tgl 15 0 empty empty empty 17 7 0 10 -262144 -1 -1
0 1;
#X obj 1431 566 vsl 15 128 19 127 0 0 empty empty empty 0 -9 0 10 -262144
-1 -1 0 1;
#X text 1415 698 amount;
#X obj 1467 556 cnv 15 295 160 empty empty empty 20 12 0 14 -68281
-66577 0;
#X obj 1584 586 vsl 15 110 127 0 0 0 empty empty empty 0 -9 0 10 -262144
-1 -1 2500 1;
#X text 1307 585 brutal decimation;
#X obj 865 765 int;
#X obj 711 591 tgl 15 0 empty empty empty 17 7 0 10 -262144 -1 -1 0
1;
#X text 732 572 horizontal rectangles;
#X text 732 592 vertical rectangles;
#X text 1184 503 on/off;
#X text 1291 502 pics;
#X floatatom 1249 504 6 0 0 0 - - -;
#N canvas 92 634 334 182 glitchengine 0;
#X obj 58 34 t b b;
#X obj 58 9 inlet;
#X obj 15 87 random 255;
#X text -105 107 new value of the glitched byte;
#X obj 138 9 inlet;
#X text 88 107 byte to be glitched;
#X obj 15 155 outlet;
#X obj 85 154 outlet;
#X obj 15 129 spigot;
#X obj 85 130 spigot;
#X obj 176 9 inlet;
#X msg 85 85 writeat 55;
#X connect 0 0 2 0;
#X connect 0 1 11 0;
#X connect 1 0 0 0;
#X connect 2 0 8 0;
#X connect 4 0 2 1;
#X connect 8 0 6 0;
#X connect 9 0 7 0;
#X connect 10 0 8 1;
#X connect 10 0 9 1;
#X connect 11 0 9 0;
#X restore 903 286 pd glitchengine;
#N canvas 92 634 334 182 glitchengine 0;
#X obj 58 34 t b b;
#X obj 58 9 inlet;
#X msg 85 85 writeat \$1;
#X obj 85 64 f;
#X obj 15 87 random 255;
#X text -105 107 new value of the glitched byte;
#X obj 100 9 inlet;
#X obj 138 9 inlet;
#X text 88 107 byte to be glitched;
#X obj 15 155 outlet;
#X obj 85 154 outlet;
#X obj 15 129 spigot;
#X obj 85 130 spigot;
#X obj 176 9 inlet;
#X connect 0 0 4 0;
#X connect 0 1 3 0;
#X connect 1 0 0 0;
#X connect 2 0 12 0;
#X connect 3 0 2 0;
#X connect 4 0 11 0;
#X connect 6 0 3 1;
#X connect 7 0 4 1;
#X connect 11 0 9 0;
#X connect 12 0 10 0;
#X connect 13 0 11 1;
#X connect 13 0 12 1;
#X restore 903 307 pd glitchengine;
#N canvas 92 634 334 182 glitchengine 0;
#X obj 58 34 t b b;
#X obj 58 9 inlet;
#X obj 15 87 random 255;
#X text -105 107 new value of the glitched byte;
#X obj 138 9 inlet;
#X text 88 107 byte to be glitched;
#X obj 15 155 outlet;
#X obj 85 154 outlet;
#X obj 15 129 spigot;
#X obj 85 130 spigot;
#X obj 176 9 inlet;
#X msg 85 85 writeat 74;
#X connect 0 0 2 0;
#X connect 0 1 11 0;
#X connect 1 0 0 0;
#X connect 2 0 8 0;
#X connect 4 0 2 1;
#X connect 8 0 6 0;
#X connect 9 0 7 0;
#X connect 10 0 8 1;
#X connect 10 0 9 1;
#X connect 11 0 9 0;
#X restore 903 244 pd glitchengine;
#N canvas 92 634 334 182 glitchengine 0;
#X obj 58 34 t b b;
#X obj 58 9 inlet;
#X obj 15 87 random 255;
#X text -105 107 new value of the glitched byte;
#X obj 138 9 inlet;
#X text 88 107 byte to be glitched;
#X obj 15 155 outlet;
#X obj 85 154 outlet;
#X obj 15 129 spigot;
#X obj 85 130 spigot;
#X obj 176 9 inlet;
#X msg 85 85 writeat 67;
#X connect 0 0 2 0;
#X connect 0 1 11 0;
#X connect 1 0 0 0;
#X connect 2 0 8 0;
#X connect 4 0 2 1;
#X connect 8 0 6 0;
#X connect 9 0 7 0;
#X connect 10 0 8 1;
#X connect 10 0 9 1;
#X connect 11 0 9 0;
#X restore 903 265 pd glitchengine;
#N canvas 92 634 356 247 glitchengine 0;
#X obj 38 33 t b b;
#X obj 38 8 inlet;
#X msg 65 148 writeat \$1;
#X text -125 170 new value of the glitched byte;
#X obj 118 8 inlet;
#X text 68 170 byte to be glitched;
#X obj -5 215 outlet;
#X obj 65 214 outlet;
#X obj -5 192 spigot;
#X obj 65 193 spigot;
#X obj 156 8 inlet;
#X obj 31 57 random 5;
#X obj -5 150 f;
#X msg -36 106 43;
#X msg -6 106 46;
#X msg 23 106 47;
#X msg 54 106 51;
#X msg 84 106 62;
#X msg 113 106 65;
#X msg 145 106 68;
#X msg 175 106 70;
#X msg 204 106 102;
#X obj 31 78 route 0 1 2 3 4 5 6 7 8;
#X connect 0 0 12 0;
#X connect 0 1 11 0;
#X connect 1 0 0 0;
#X connect 2 0 9 0;
#X connect 4 0 12 1;
#X connect 8 0 6 0;
#X connect 9 0 7 0;
#X connect 10 0 8 1;
#X connect 10 0 9 1;
#X connect 11 0 22 0;
#X connect 12 0 8 0;
#X connect 13 0 2 0;
#X connect 14 0 2 0;
#X connect 15 0 2 0;
#X connect 16 0 2 0;
#X connect 17 0 2 0;
#X connect 18 0 2 0;
#X connect 19 0 2 0;
#X connect 20 0 2 0;
#X connect 21 0 2 0;
#X connect 22 0 13 0;
#X connect 22 1 14 0;
#X connect 22 2 15 0;
#X connect 22 3 16 0;
#X connect 22 4 17 0;
#X connect 22 5 18 0;
#X connect 22 6 19 0;
#X connect 22 7 20 0;
#X connect 22 8 21 0;
#X restore 902 204 pd glitchengine;
#N canvas 92 634 334 182 glitchengine 0;
#X obj 58 34 t b b;
#X obj 58 9 inlet;
#X obj 15 87 random 255;
#X text -105 107 new value of the glitched byte;
#X obj 138 9 inlet;
#X text 88 107 byte to be glitched;
#X obj 15 155 outlet;
#X obj 85 154 outlet;
#X obj 15 129 spigot;
#X obj 85 130 spigot;
#X obj 176 9 inlet;
#X msg 85 85 writeat 75;
#X connect 0 0 2 0;
#X connect 0 1 11 0;
#X connect 1 0 0 0;
#X connect 2 0 8 0;
#X connect 4 0 2 1;
#X connect 8 0 6 0;
#X connect 9 0 7 0;
#X connect 10 0 8 1;
#X connect 10 0 9 1;
#X connect 11 0 9 0;
#X restore 902 225 pd glitchengine;
#N canvas 157 712 355 242 glitchengine 0;
#X obj 58 34 t b b;
#X obj 58 9 inlet;
#X msg 85 132 writeat \$1;
#X text -105 153 new value of the glitched byte;
#X obj 138 9 inlet;
#X text 88 154 byte to be glitched;
#X obj 15 201 outlet;
#X obj 85 201 outlet;
#X obj 15 175 spigot;
#X obj 85 177 spigot;
#X obj 176 9 inlet;
#X obj 85 64 random 5;
#X obj 85 85 route 0 1 2 3 4 5;
#X msg 18 108 41;
#X obj 15 133 f;
#X msg 48 108 42;
#X msg 77 108 49;
#X msg 108 108 50;
#X msg 138 108 59;
#X msg 167 108 60;
#X connect 0 0 14 0;
#X connect 0 1 11 0;
#X connect 1 0 0 0;
#X connect 2 0 9 0;
#X connect 4 0 14 1;
#X connect 8 0 6 0;
#X connect 9 0 7 0;
#X connect 10 0 8 1;
#X connect 10 0 9 1;
#X connect 11 0 12 0;
#X connect 12 0 13 0;
#X connect 12 1 15 0;
#X connect 12 2 16 0;
#X connect 12 3 17 0;
#X connect 12 4 18 0;
#X connect 12 5 19 0;
#X connect 13 0 2 0;
#X connect 14 0 8 0;
#X connect 15 0 2 0;
#X connect 16 0 2 0;
#X connect 17 0 2 0;
#X connect 18 0 2 0;
#X connect 19 0 2 0;
#X restore 903 164 pd glitchengine;
#N canvas 92 634 336 241 glitchengine 0;
#X obj 58 34 t b b;
#X obj 58 9 inlet;
#X msg 85 133 writeat \$1;
#X text -105 155 new value of the glitched byte;
#X obj 138 9 inlet;
#X text 88 155 byte to be glitched;
#X obj 15 203 outlet;
#X obj 85 202 outlet;
#X obj 15 177 spigot;
#X obj 85 178 spigot;
#X obj 176 9 inlet;
#X msg 50 107 40;
#X msg 80 107 44;
#X msg 109 107 45;
#X msg 140 107 66;
#X obj 85 64 random 3;
#X obj 85 85 route 0 1 2 3;
#X obj 15 135 f;
#X connect 0 0 17 0;
#X connect 0 1 15 0;
#X connect 1 0 0 0;
#X connect 2 0 9 0;
#X connect 4 0 17 1;
#X connect 8 0 6 0;
#X connect 9 0 7 0;
#X connect 10 0 8 1;
#X connect 10 0 9 1;
#X connect 11 0 2 0;
#X connect 12 0 2 0;
#X connect 13 0 2 0;
#X connect 14 0 2 0;
#X connect 15 0 16 0;
#X connect 16 0 11 0;
#X connect 16 1 12 0;
#X connect 16 2 13 0;
#X connect 16 3 14 0;
#X connect 17 0 8 0;
#X restore 901 184 pd glitchengine;
#N canvas 92 634 334 182 glitchengine 0;
#X obj 58 34 t b b;
#X obj 58 9 inlet;
#X obj 15 87 random 255;
#X text -105 107 new value of the glitched byte;
#X obj 138 9 inlet;
#X text 88 107 byte to be glitched;
#X obj 15 155 outlet;
#X obj 85 154 outlet;
#X obj 15 129 spigot;
#X obj 85 130 spigot;
#X obj 176 9 inlet;
#X msg 85 85 writeat 594;
#X connect 0 0 2 0;
#X connect 0 1 11 0;
#X connect 1 0 0 0;
#X connect 2 0 8 0;
#X connect 4 0 2 1;
#X connect 8 0 6 0;
#X connect 9 0 7 0;
#X connect 10 0 8 1;
#X connect 10 0 9 1;
#X connect 11 0 9 0;
#X restore 999 286 pd glitchengine;
#N canvas 92 634 334 182 glitchengine 0;
#X obj 58 34 t b b;
#X obj 58 9 inlet;
#X obj 15 87 random 255;
#X text -105 107 new value of the glitched byte;
#X obj 138 9 inlet;
#X text 88 107 byte to be glitched;
#X obj 15 155 outlet;
#X obj 85 154 outlet;
#X obj 15 129 spigot;
#X obj 85 130 spigot;
#X obj 176 9 inlet;
#X msg 85 85 writeat 596;
#X connect 0 0 2 0;
#X connect 0 1 11 0;
#X connect 1 0 0 0;
#X connect 2 0 8 0;
#X connect 4 0 2 1;
#X connect 8 0 6 0;
#X connect 9 0 7 0;
#X connect 10 0 8 1;
#X connect 10 0 9 1;
#X connect 11 0 9 0;
#X restore 999 307 pd glitchengine;
#N canvas 92 634 334 182 glitchengine 0;
#X obj 58 34 t b b;
#X obj 58 9 inlet;
#X obj 15 87 random 255;
#X text -105 107 new value of the glitched byte;
#X obj 138 9 inlet;
#X text 88 107 byte to be glitched;
#X obj 15 155 outlet;
#X obj 85 154 outlet;
#X obj 15 129 spigot;
#X obj 85 130 spigot;
#X obj 176 9 inlet;
#X msg 85 85 writeat 593;
#X connect 0 0 2 0;
#X connect 0 1 11 0;
#X connect 1 0 0 0;
#X connect 2 0 8 0;
#X connect 4 0 2 1;
#X connect 8 0 6 0;
#X connect 9 0 7 0;
#X connect 10 0 8 1;
#X connect 10 0 9 1;
#X connect 11 0 9 0;
#X restore 999 265 pd glitchengine;
#N canvas 92 634 334 182 glitchengine 0;
#X obj 58 34 t b b;
#X obj 58 9 inlet;
#X text -105 107 new value of the glitched byte;
#X obj 138 9 inlet;
#X text 88 107 byte to be glitched;
#X obj 15 155 outlet;
#X obj 85 154 outlet;
#X obj 15 129 spigot;
#X obj 85 130 spigot;
#X obj 176 9 inlet;
#X msg 85 85 writeat 105;
#X obj 15 87 random 15;
#X connect 0 0 11 0;
#X connect 0 1 10 0;
#X connect 1 0 0 0;
#X connect 3 0 11 1;
#X connect 7 0 5 0;
#X connect 8 0 6 0;
#X connect 9 0 7 1;
#X connect 9 0 8 1;
#X connect 10 0 8 0;
#X connect 11 0 7 0;
#X restore 1096 285 pd glitchengine;
#N canvas 92 634 334 182 glitchengine 0;
#X obj 58 34 t b b;
#X obj 58 9 inlet;
#X text -105 107 new value of the glitched byte;
#X obj 138 9 inlet;
#X text 88 107 byte to be glitched;
#X obj 15 155 outlet;
#X obj 85 154 outlet;
#X obj 15 129 spigot;
#X obj 85 130 spigot;
#X obj 176 9 inlet;
#X msg 85 85 writeat 106;
#X obj 15 87 random 15;
#X connect 0 0 11 0;
#X connect 0 1 10 0;
#X connect 1 0 0 0;
#X connect 3 0 11 1;
#X connect 7 0 5 0;
#X connect 8 0 6 0;
#X connect 9 0 7 1;
#X connect 9 0 8 1;
#X connect 10 0 8 0;
#X connect 11 0 7 0;
#X restore 1096 306 pd glitchengine;
#N canvas 92 634 334 182 glitchengine 0;
#X obj 58 34 t b b;
#X obj 58 9 inlet;
#X text -105 107 new value of the glitched byte;
#X obj 138 9 inlet;
#X text 88 107 byte to be glitched;
#X obj 15 155 outlet;
#X obj 85 154 outlet;
#X obj 15 129 spigot;
#X obj 85 130 spigot;
#X obj 176 9 inlet;
#X msg 85 85 writeat 104;
#X obj 15 87 random 15;
#X connect 0 0 11 0;
#X connect 0 1 10 0;
#X connect 1 0 0 0;
#X connect 3 0 11 1;
#X connect 7 0 5 0;
#X connect 8 0 6 0;
#X connect 9 0 7 1;
#X connect 9 0 8 1;
#X connect 10 0 8 0;
#X connect 11 0 7 0;
#X restore 1096 264 pd glitchengine;
#N canvas 92 634 334 182 glitchengine 0;
#X obj 58 34 t b b;
#X obj 58 9 inlet;
#X obj 15 87 random 255;
#X text -105 107 new value of the glitched byte;
#X obj 138 9 inlet;
#X text 88 107 byte to be glitched;
#X obj 15 155 outlet;
#X obj 85 154 outlet;
#X obj 15 129 spigot;
#X obj 85 130 spigot;
#X obj 176 9 inlet;
#X msg 85 85 writeat 190;
#X connect 0 0 2 0;
#X connect 0 1 11 0;
#X connect 1 0 0 0;
#X connect 2 0 8 0;
#X connect 4 0 2 1;
#X connect 8 0 6 0;
#X connect 9 0 7 0;
#X connect 10 0 8 1;
#X connect 10 0 9 1;
#X connect 11 0 9 0;
#X restore 1193 285 pd glitchengine;
#N canvas 92 634 334 182 glitchengine 0;
#X obj 58 34 t b b;
#X obj 58 9 inlet;
#X obj 15 87 random 255;
#X text -105 107 new value of the glitched byte;
#X obj 138 9 inlet;
#X text 88 107 byte to be glitched;
#X obj 15 155 outlet;
#X obj 85 154 outlet;
#X obj 15 129 spigot;
#X obj 85 130 spigot;
#X obj 176 9 inlet;
#X msg 87 85 writeat 199;
#X connect 0 0 2 0;
#X connect 0 1 11 0;
#X connect 1 0 0 0;
#X connect 2 0 8 0;
#X connect 4 0 2 1;
#X connect 8 0 6 0;
#X connect 9 0 7 0;
#X connect 10 0 8 1;
#X connect 10 0 9 1;
#X connect 11 0 9 0;
#X restore 1193 306 pd glitchengine;
#N canvas 299 575 412 294 glitchengine 0;
#X obj 58 9 inlet;
#X msg 85 170 writeat \$1;
#X text -105 140 new value of the glitched byte;
#X obj 100 9 inlet;
#X obj 138 9 inlet;
#X text 88 192 byte to be glitched;
#X obj 15 188 outlet;
#X obj 85 239 outlet;
#X obj 15 162 spigot;
#X obj 85 215 spigot;
#X obj 176 9 inlet;
#X obj 15 120 random 18;
#X obj 85 123 random;
#X obj 85 146 f;
#X obj 115 146 + 1;
#X obj 58 87 t b b b;
#X obj 58 31 t b b;
#X obj 58 65 uzi 80;
#X text 102 66 offset value (puzzle effect);
#X connect 0 0 16 0;
#X connect 1 0 9 0;
#X connect 3 0 12 1;
#X connect 4 0 17 1;
#X connect 8 0 6 0;
#X connect 9 0 7 0;
#X connect 10 0 8 1;
#X connect 10 0 9 1;
#X connect 11 0 8 0;
#X connect 12 0 13 0;
#X connect 13 0 14 0;
#X connect 13 0 1 0;
#X connect 14 0 13 1;
#X connect 15 0 11 0;
#X connect 15 1 13 0;
#X connect 16 0 17 0;
#X connect 16 1 12 0;
#X connect 17 0 15 0;
#X restore 1292 306 pd glitchengine;
#N canvas 92 634 334 182 glitchengine 0;
#X obj 58 34 t b b;
#X obj 58 9 inlet;
#X msg 85 85 writeat \$1;
#X obj 85 64 f;
#X obj 15 87 random 255;
#X text -105 107 new value of the glitched byte;
#X obj 100 9 inlet;
#X obj 138 9 inlet;
#X text 88 107 byte to be glitched;
#X obj 15 155 outlet;
#X obj 85 154 outlet;
#X obj 15 129 spigot;
#X obj 85 130 spigot;
#X obj 176 9 inlet;
#X connect 0 0 4 0;
#X connect 0 1 3 0;
#X connect 1 0 0 0;
#X connect 2 0 12 0;
#X connect 3 0 2 0;
#X connect 4 0 11 0;
#X connect 6 0 3 1;
#X connect 7 0 4 1;
#X connect 11 0 9 0;
#X connect 12 0 10 0;
#X connect 13 0 11 1;
#X connect 13 0 12 1;
#X restore 1392 308 pd glitchengine;
#X obj 1176 129 t b b b b b b b b b b b b b b b b b b b b b b b;
#X obj 1051 766 int;
#X obj 1051 743 * 2;
#X obj 1175 99 metro 600;
#X obj 1242 767 int;
#X obj 1432 767 int;
#X obj 1621 813 int;
#X obj 865 742 * 1;
#X obj 711 673 tgl 15 0 empty empty empty 17 7 0 10 -262144 -1 -1 0
1;
#X text 732 674 vertical stripes;
#X obj 712 693 tgl 15 0 empty empty empty 17 7 0 10 -262144 -1 -1 0
1;
#X text 733 694 grill effect;
#X obj 1242 744 * 2;
#X text 1283 559 acid dreams;
#X obj 1432 744 / 8;
#X msg 753 146 info;
#X obj 785 204 route length;
#X text 1473 561 classic pixel bullying;
#X obj 759 122 t b s;
#X obj 1647 569 vsl 15 128 0 127 0 0 empty empty empty 0 -9 0 10 -262144
-1 -1 1900 1;
#X text 1566 700 location;
#X obj 785 229 - 607;
#X obj 1621 746 / 127;
#X obj 1621 768 *;
#X obj 1621 790 + 607;
#X text 1525 586 beginning;
#X text 1561 684 end;
#X obj 1475 632 tgl 15 0 empty empty empty 17 7 0 10 -262144 -1 -1
1 1;
#X obj 1292 283 uzi;
#X text 1622 700 iterations;
#X text 1634 684 1;
#X floatatom 1669 684 3 0 0 0 - - -;
#X obj 1670 798 int;
#X obj 1672 770 + 1;
#X text 1307 610 ice cream sandwich;
#X text 1622 567 100;
#X text 1494 632 Go for it!;
#X obj 1720 569 vsl 15 128 0 127 0 0 empty empty empty 0 -9 0 10 -262144
-1 -1 0 1;
#X obj 1721 773 int;
#X text 1691 699 puzzleness;
#X obj 1467 530 cnv 15 295 20 empty empty empty 20 12 0 14 -233017
-66577 0;
#X text 1053 531 "header" glitch;
#X text 1564 533 "body" glitch;
#X obj 1721 742 * 10;
#X obj 580 584 inlet;
#X obj 594 603 inlet;
#X obj 606 623 inlet;
#X obj 618 643 inlet;
#X obj 630 664 inlet;
#X obj 643 684 inlet;
#X obj 654 705 inlet;
#X obj 814 737 inlet;
#X obj 910 738 inlet;
#X obj 923 758 inlet;
#X obj 936 779 inlet;
#X obj 1014 742 inlet;
#X obj 1196 738 inlet;
#X obj 1379 745 inlet;
#X obj 1468 743 inlet;
#X obj 1512 744 inlet;
#X obj 1527 763 inlet;
#X obj 1538 785 inlet;
#X obj 1722 824 inlet;
#X obj 590 529 t b b;
#X text 1092 666 (coloured pictures only);
#X obj 370 689 + 1;
#X floatatom 344 735 5 0 0 0 - - -;
#X obj 344 670 bng 15 250 50 0 empty empty empty 17 7 0 10 -262144
-1 -1;
#X obj 344 712 mod 10;
#X obj 313 689 + 1;
#X obj 287 689 f 0;
#X obj 344 689 f 1;
#X obj 344 756 select 0;
#X obj 310 617 loadbang;
#X text 403 678 "originals" numbering;
#X msg 301 437 /original000\$1\$2.jpg;
#X obj 287 783 pack f f;
#X obj 294 759 bang;
#X obj 310 637 t b b;
#X obj 289 636 bng 15 250 50 0 empty empty empty 17 7 0 10 -262144
-1 -1;
#X msg 367 666 9;
#X msg 310 666 -1;
#X text -86 433 matching file names between original files and the
glitching engine;
#X obj 701 409 cnv 15 360 30 empty empty empty 20 12 0 14 -44595 -66577
0;
#X obj 1065 409 cnv 15 183 30 empty empty empty 20 12 0 14 -52409 -66577
0;
#X obj 1251 409 cnv 15 183 30 empty empty empty 20 12 0 14 -68281 -66577
0;
#X obj 1437 409 cnv 15 137 30 empty empty empty 20 12 0 14 -112697
-66577 0;
#X obj 1578 408 cnv 15 173 30 empty empty empty 20 12 0 14 -68281 -66577
0;
#X text 702 408 hr;
#X text 741 408 vr;
#X text 785 408 bs;
#X text 824 408 part.;
#X text 881 408 hs;
#X text 926 408 vs;
#X text 964 408 grill;
#X text 1013 408 amount;
#X text 700 422 (0/1);
#X text 737 421 (0/1);
#X text 782 422 (0/1);
#X text 822 422 (0/1);
#X text 878 422 (0/1);
#X text 919 422 (0/1);
#X text 964 422 (0/1);
#X text 1009 422 (0-127);
#X text 1066 422 (0/1);
#X text 1105 421 (0/1);
#X text 1152 422 (0/1);
#X text 1200 408 amount;
#X text 1198 422 (0-127);
#X text 1068 408 width;
#X text 1109 408 depth;
#X text 1155 408 patch.;
#X text 1252 422 (0/1);
#X text 1291 421 (0/1);
#X text 1338 422 (0/1);
#X text 1386 408 amount;
#X text 1384 422 (0-127);
#X text 1254 408 glob.;
#X text 1295 408 vert.;
#X text 1341 408 hor.;
#X text 1439 421 (0/1);
#X text 1481 421 (0/1);
#X text 1526 408 amount;
#X text 1440 408 decim.;
#X text 1484 408 sand.;
#X text 1580 421 (0/1);
#X text 1705 420 (0-127);
#X text 1582 407 Go;
#X text 1612 407 location;
#X text 1669 407 iter.;
#X text 1708 407 puzzle;
#X obj 1097 742 inlet;
#X obj 1110 762 inlet;
#X obj 1123 783 inlet;
#X obj 1283 744 inlet;
#X obj 1296 764 inlet;
#X text 1615 420 (127-0);
#X text 1662 420 (0-127);
#X text 1753 415 Go;
#X text 1518 421 (19-127);
#X obj 1672 745 / 1.28;
#X msg 24 152 offset 2000 0;
#X connect 5 0 7 0;
#X connect 6 0 7 0;
#X connect 8 0 58 0;
#X connect 9 0 13 0;
#X connect 10 0 13 1;
#X connect 11 0 7 0;
#X connect 12 0 9 0;
#X connect 13 0 11 0;
#X connect 14 0 29 0;
#X connect 15 0 14 0;
#X connect 16 0 18 0;
#X connect 17 0 16 0;
#X connect 18 0 14 0;
#X connect 18 0 60 0;
#X connect 20 0 19 2;
#X connect 21 0 20 0;
#X connect 22 0 21 0;
#X connect 23 0 21 1;
#X connect 24 0 25 0;
#X connect 24 0 52 0;
#X connect 24 0 214 0;
#X connect 25 0 48 0;
#X connect 25 0 40 0;
#X connect 25 0 46 1;
#X connect 25 0 47 0;
#X connect 25 0 102 0;
#X connect 27 0 19 0;
#X connect 28 0 277 0;
#X connect 29 0 27 0;
#X connect 29 1 9 0;
#X connect 29 1 22 0;
#X connect 29 2 10 0;
#X connect 29 2 23 0;
#X connect 30 0 199 0;
#X connect 34 1 152 0;
#X connect 35 0 154 0;
#X connect 36 0 37 0;
#X connect 36 0 41 1;
#X connect 37 0 36 1;
#X connect 38 0 36 0;
#X connect 39 0 38 0;
#X connect 40 0 36 0;
#X connect 41 0 43 0;
#X connect 42 0 46 0;
#X connect 42 1 40 0;
#X connect 43 0 34 0;
#X connect 44 0 35 0;
#X connect 45 0 41 0;
#X connect 46 0 45 0;
#X connect 47 0 54 0;
#X connect 48 0 19 0;
#X connect 49 0 54 1;
#X connect 51 0 53 1;
#X connect 52 0 51 1;
#X connect 53 0 50 0;
#X connect 53 0 62 1;
#X connect 53 0 64 0;
#X connect 54 0 51 0;
#X connect 55 0 53 0;
#X connect 55 1 54 0;
#X connect 55 2 203 0;
#X connect 56 0 59 0;
#X connect 57 0 10 0;
#X connect 58 0 12 0;
#X connect 58 1 57 0;
#X connect 59 0 55 0;
#X connect 59 1 19 0;
#X connect 60 0 59 0;
#X connect 60 1 5 0;
#X connect 60 2 6 0;
#X connect 60 3 5 0;
#X connect 61 0 34 0;
#X connect 62 0 35 0;
#X connect 63 0 62 0;
#X connect 64 0 63 0;
#X connect 69 0 139 0;
#X connect 71 0 136 0;
#X connect 72 0 124 2;
#X connect 73 0 122 2;
#X connect 74 0 120 2;
#X connect 77 0 123 2;
#X connect 81 0 143 0;
#X connect 83 0 128 2;
#X connect 85 0 126 2;
#X connect 87 0 127 2;
#X connect 89 0 138 0;
#X connect 92 0 131 2;
#X connect 93 0 129 2;
#X connect 94 0 130 2;
#X connect 95 0 148 0;
#X connect 104 0 132 2;
#X connect 105 0 133 2;
#X connect 106 0 150 0;
#X connect 109 0 158 0;
#X connect 111 0 124 1;
#X connect 111 0 125 1;
#X connect 111 0 122 1;
#X connect 111 0 123 1;
#X connect 111 0 120 1;
#X connect 111 0 121 1;
#X connect 111 0 118 1;
#X connect 111 0 119 2;
#X connect 112 0 125 2;
#X connect 118 0 34 0;
#X connect 118 1 34 0;
#X connect 119 0 34 0;
#X connect 119 1 34 0;
#X connect 120 0 34 0;
#X connect 120 1 34 0;
#X connect 121 0 34 0;
#X connect 121 1 34 0;
#X connect 122 0 34 0;
#X connect 122 1 34 0;
#X connect 123 0 34 0;
#X connect 123 1 34 0;
#X connect 124 0 34 0;
#X connect 124 1 34 0;
#X connect 125 0 34 0;
#X connect 125 1 34 0;
#X connect 126 0 34 0;
#X connect 126 1 34 0;
#X connect 127 0 34 0;
#X connect 127 1 34 0;
#X connect 128 0 34 0;
#X connect 128 1 34 0;
#X connect 129 0 34 0;
#X connect 129 1 34 0;
#X connect 130 0 34 0;
#X connect 130 1 34 0;
#X connect 131 0 34 0;
#X connect 131 1 34 0;
#X connect 132 0 34 0;
#X connect 132 1 34 0;
#X connect 133 0 34 0;
#X connect 133 1 34 0;
#X connect 134 0 34 0;
#X connect 134 1 34 0;
#X connect 135 0 34 0;
#X connect 135 1 34 0;
#X connect 136 0 35 0;
#X connect 136 1 42 0;
#X connect 136 2 124 0;
#X connect 136 3 125 0;
#X connect 136 4 122 0;
#X connect 136 5 123 0;
#X connect 136 6 120 0;
#X connect 136 7 121 0;
#X connect 136 8 118 0;
#X connect 136 9 119 0;
#X connect 136 10 128 0;
#X connect 136 11 126 0;
#X connect 136 12 127 0;
#X connect 136 13 131 0;
#X connect 136 14 129 0;
#X connect 136 15 130 0;
#X connect 136 16 132 0;
#X connect 136 17 133 0;
#X connect 136 18 164 0;
#X connect 136 21 135 0;
#X connect 137 0 128 1;
#X connect 137 0 126 1;
#X connect 137 0 127 1;
#X connect 138 0 137 0;
#X connect 139 0 136 0;
#X connect 140 0 131 1;
#X connect 140 0 129 1;
#X connect 140 0 130 1;
#X connect 141 0 132 1;
#X connect 141 0 133 1;
#X connect 142 0 134 1;
#X connect 143 0 111 0;
#X connect 144 0 121 2;
#X connect 146 0 118 2;
#X connect 148 0 140 0;
#X connect 150 0 141 0;
#X connect 151 0 34 0;
#X connect 152 0 157 0;
#X connect 154 0 151 0;
#X connect 154 1 61 0;
#X connect 155 0 276 0;
#X connect 157 0 159 1;
#X connect 158 0 159 0;
#X connect 159 0 160 0;
#X connect 160 0 142 0;
#X connect 163 0 134 3;
#X connect 164 0 134 0;
#X connect 168 0 167 0;
#X connect 168 0 164 1;
#X connect 169 0 168 0;
#X connect 173 0 179 0;
#X connect 174 0 134 2;
#X connect 179 0 174 0;
#X connect 180 0 72 0;
#X connect 181 0 112 0;
#X connect 182 0 73 0;
#X connect 183 0 77 0;
#X connect 184 0 74 0;
#X connect 185 0 144 0;
#X connect 186 0 146 0;
#X connect 187 0 81 0;
#X connect 188 0 83 0;
#X connect 189 0 85 0;
#X connect 190 0 87 0;
#X connect 191 0 89 0;
#X connect 192 0 95 0;
#X connect 193 0 106 0;
#X connect 194 0 163 0;
#X connect 195 0 109 0;
#X connect 196 0 155 0;
#X connect 197 0 173 0;
#X connect 198 0 71 0;
#X connect 199 0 16 0;
#X connect 199 1 6 0;
#X connect 201 0 207 1;
#X connect 202 0 208 0;
#X connect 202 0 212 1;
#X connect 202 0 213 0;
#X connect 203 0 207 0;
#X connect 204 0 202 0;
#X connect 205 0 206 1;
#X connect 206 0 205 0;
#X connect 206 0 212 0;
#X connect 207 0 201 0;
#X connect 207 0 204 0;
#X connect 208 0 206 0;
#X connect 209 0 214 0;
#X connect 211 0 49 0;
#X connect 212 0 211 0;
#X connect 213 0 212 0;
#X connect 214 0 217 0;
#X connect 214 1 216 0;
#X connect 215 0 214 0;
#X connect 216 0 207 0;
#X connect 217 0 206 0;
#X connect 267 0 92 0;
#X connect 268 0 93 0;
#X connect 269 0 94 0;
#X connect 270 0 104 0;
#X connect 271 0 105 0;
#X connect 276 0 169 0;
#X connect 277 0 7 0;
#X coords 0 -1 1 1 1075 330 2 700 400;
